<svg xmlns="http://www.w3.org/2000/svg" viewBox="0 0 100 100"><circle cx="50" cy="50" r="46" stroke="#379683" stroke-width="8" fill="#FFF"/><path d="M37.15 34.5q4.03 0 6.727 2.405 2.698 2.405 2.763 6.11V64.27h-9.1V46.395q-.195-4.16-4.16-4.16-3.12 0-5.005 2.925-1.885 2.925-1.885 7.54v11.57h-9.1V35.865h8.255l.65 4.55q1.56-2.795 4.322-4.355 2.763-1.56 6.533-1.56zM70.18 57.215q2.73 0 5.655-1.885l4.03 6.76q-2.34 1.3-4.94 2.08-2.6.78-4.94.78-5.07 0-8.742-1.917-3.673-1.918-5.558-5.395Q53.8 54.16 53.8 49.675q0-4.16 2.178-7.67 2.177-3.51 5.947-5.557 3.77-2.048 8.255-2.048 6.11 0 10.043 3.575 3.932 3.575 5.102 10.205l-20.8 6.63q2.08 2.405 5.655 2.405zm-.715-15.73q-3.055 0-4.875 2.08-1.82 2.08-1.82 5.59v.585l12.48-4.225q-1.365-4.03-5.785-4.03z" fill="#379683"/></svg>