<?xml version="1.0" encoding="UTF-8" standalone="no"?>
<svg xmlns="http://www.w3.org/2000/svg" version="1.1" viewBox="0 0 120 120">
  <rect x="0" y="0" width="120" height="120" fill="#FFFFFF" stroke="none" />
  <circle cx="60" cy="60" r="46" fill="none" stroke="#379683" stroke-width="8" />
  <path d="M 47.15, 44.5 q 4.03, 0, 6.727, 2.405 q 2.698,2.405, 2.763, 6.11 l 0, 21.255 l -9.1, 0 l 0,-17.875 q -0.195, -4.16, -4.16, -4.16 q -3.12, 0, -5.005,2.925 q -1.885, 2.925, -1.885, 7.54 l 0, 11.57 l -9.1, 0 l 0, -28.405 l 8.255, 0 l 0.65, 4.55 q 1.56, -2.795, 4.322, -4.355 q 2.763, -1.56, 6.533, -1.56 Z" fill="#379683" stroke="none" />
  <path d="M 80.18, 67.215 q 2.73, 0, 5.655, -1.885 l 4.03, 6.76 q -2.34, 1.3, -4.94, 2.08 q -2.6, 0.78, -4.94, 0.78 q -5.07, 0, -8.742, -1.917 q -3.673, -1.918, -5.558, -5.395 q -1.885, -3.478, -1.885, -7.963 q 0, -4.16, 2.178, -7.67 q 2.177, -3.51, 5.947, -5.557 q 3.77, -2.048, 8.255, -2.048 q 6.11, 0, 10.043, 3.575 q 3.932, 3.575, 5.102, 10.205 l -20.8, 6.63 q 2.08, 2.405, 5.655, 2.405 Z m -0.715, -15.73 q -3.055, 0, -4.875, 2.08 q -1.82, 2.08, -1.82, 5.59 l 0, 0.585 l 12.48, -4.225 q -1.365, -4.03, -5.785, -4.03 Z" fill="#379683" stroke="none" />
</svg>
